<svg xmlns="http://www.w3.org/2000/svg" xmlns:xlink="http://www.w3.org/1999/xlink" version="1.1" x="0px" y="0px" viewBox="0 0 60 75" style="enable-background:new 0 0 60 60;" xml:space="preserve"><path d="M30,10.0234375c-13.2333984,0-24,8.5297852-24,19.0141602c0,4.3300781,1.8632813,8.5224609,5.2651367,11.8862305  l-4.4428711,7.5454102c-0.2128906,0.3613281-0.1772461,0.8173828,0.0888672,1.1416016  c0.1933594,0.2358398,0.4790039,0.3657227,0.7729492,0.3657227c0.1103516,0,0.2211914-0.0180664,0.3291016-0.0556641  l11.1870117-3.8994141C22.5302734,47.3505859,26.2553711,48.0512695,30,48.0512695c13.2333984,0,24-8.5292969,24-19.0136719  S43.2333984,10.0234375,30,10.0234375z M30,46.0512695c-3.6176758,0-7.2099609-0.6992188-10.3881836-2.0214844  c-0.2280273-0.09375-0.4819336-0.1020508-0.7133789-0.0209961l-8.9697266,3.1264648l3.4628906-5.8813477  c0.2397461-0.4072266,0.1616211-0.9262695-0.1870117-1.2451172C9.8481445,36.9399414,8,33.043457,8,29.0375977  c0-9.3818359,9.8691406-17.0141602,22-17.0141602s22,7.6323242,22,17.0141602C52,38.4189453,42.1308594,46.0512695,30,46.0512695z"/><path d="M18.8857422,25.3061523c-2.3798828,0-4.315918,1.9360352-4.315918,4.315918  c0,2.3793945,1.9360352,4.3154297,4.315918,4.3154297c2.3793945,0,4.3154297-1.9360352,4.3154297-4.3154297  C23.2011719,27.2421875,21.2651367,25.3061523,18.8857422,25.3061523z M18.8857422,31.9375  c-1.2768555,0-2.315918-1.0385742-2.315918-2.3154297s1.0390625-2.315918,2.315918-2.315918s2.3154297,1.0390625,2.3154297,2.315918  S20.1625977,31.9375,18.8857422,31.9375z"/><path d="M30,25.3061523c-2.3793945,0-4.3154297,1.9360352-4.3154297,4.315918c0,2.3793945,1.9360352,4.3154297,4.3154297,4.3154297  c2.3798828,0,4.315918-1.9360352,4.315918-4.3154297C34.315918,27.2421875,32.3798828,25.3061523,30,25.3061523z M30,31.9375  c-1.2768555,0-2.3154297-1.0385742-2.3154297-2.3154297S28.7231445,27.3061523,30,27.3061523s2.315918,1.0390625,2.315918,2.315918  S31.2768555,31.9375,30,31.9375z"/><path d="M41.1147461,25.3061523c-2.3793945,0-4.3154297,1.9360352-4.3154297,4.315918  c0,2.3793945,1.9360352,4.3154297,4.3154297,4.3154297c2.3798828,0,4.315918-1.9360352,4.315918-4.3154297  C45.4306641,27.2421875,43.4946289,25.3061523,41.1147461,25.3061523z M41.1147461,31.9375  c-1.2768555,0-2.3154297-1.0385742-2.3154297-2.3154297s1.0385742-2.315918,2.3154297-2.315918  s2.315918,1.0390625,2.315918,2.315918S42.3916016,31.9375,41.1147461,31.9375z"/><text x="0" y="75" fill="#000000" font-size="5px" font-weight="bold" font-family="'Helvetica Neue', Helvetica, Arial-Unicode, Arial, Sans-serif">Created by Vectorstall</text><text x="0" y="80" fill="#000000" font-size="5px" font-weight="bold" font-family="'Helvetica Neue', Helvetica, Arial-Unicode, Arial, Sans-serif">from the Noun Project</text></svg>